<?xml version="1.0" encoding="UTF-8"?>
<svg xmlns="http://www.w3.org/2000/svg" xmlns:xlink="http://www.w3.org/1999/xlink" width="158.38pt" height="158.37pt" viewBox="0 0 158.38 158.37" version="1.2">
<g id="surface1">
<path style="fill:none;stroke-width:5;stroke-linecap:round;stroke-linejoin:round;stroke:rgb(0%,0%,0%);stroke-opacity:1;stroke-miterlimit:10;" d="M 37.716631 37.691493 L 1546.036743 37.691493 " transform="matrix(0.0996038,0,0,-0.0996038,0.005,157.742496)"/>
<path style="fill:none;stroke-width:5;stroke-linecap:round;stroke-linejoin:round;stroke:rgb(0%,0%,0%);stroke-opacity:1;stroke-miterlimit:10;" d="M 37.716631 253.193808 L 1546.036743 253.193808 " transform="matrix(0.0996038,0,0,-0.0996038,0.005,157.742496)"/>
<path style="fill:none;stroke-width:5;stroke-linecap:round;stroke-linejoin:round;stroke:rgb(0%,0%,0%);stroke-opacity:1;stroke-miterlimit:10;" d="M 37.716631 468.656905 L 1546.036743 468.656905 " transform="matrix(0.0996038,0,0,-0.0996038,0.005,157.742496)"/>
<path style="fill:none;stroke-width:5;stroke-linecap:round;stroke-linejoin:round;stroke:rgb(0%,0%,0%);stroke-opacity:1;stroke-miterlimit:10;" d="M 37.716631 684.120001 L 1546.036743 684.120001 " transform="matrix(0.0996038,0,0,-0.0996038,0.005,157.742496)"/>
<path style="fill:none;stroke-width:5;stroke-linecap:round;stroke-linejoin:round;stroke:rgb(0%,0%,0%);stroke-opacity:1;stroke-miterlimit:10;" d="M 37.716631 899.622316 L 1546.036743 899.622316 " transform="matrix(0.0996038,0,0,-0.0996038,0.005,157.742496)"/>
<path style="fill:none;stroke-width:5;stroke-linecap:round;stroke-linejoin:round;stroke:rgb(0%,0%,0%);stroke-opacity:1;stroke-miterlimit:10;" d="M 37.716631 1115.085413 L 1546.036743 1115.085413 " transform="matrix(0.0996038,0,0,-0.0996038,0.005,157.742496)"/>
<path style="fill:none;stroke-width:5;stroke-linecap:round;stroke-linejoin:round;stroke:rgb(0%,0%,0%);stroke-opacity:1;stroke-miterlimit:10;" d="M 37.716631 1330.587727 L 1546.036743 1330.587727 " transform="matrix(0.0996038,0,0,-0.0996038,0.005,157.742496)"/>
<path style="fill:none;stroke-width:5;stroke-linecap:round;stroke-linejoin:round;stroke:rgb(0%,0%,0%);stroke-opacity:1;stroke-miterlimit:10;" d="M 37.716631 1546.050824 L 1546.036743 1546.050824 " transform="matrix(0.0996038,0,0,-0.0996038,0.005,157.742496)"/>
<path style="fill:none;stroke-width:5;stroke-linecap:round;stroke-linejoin:round;stroke:rgb(0%,0%,0%);stroke-opacity:1;stroke-miterlimit:10;" d="M 37.716631 37.691493 L 37.716631 1546.050824 " transform="matrix(0.0996038,0,0,-0.0996038,0.005,157.742496)"/>
<path style="fill:none;stroke-width:5;stroke-linecap:round;stroke-linejoin:round;stroke:rgb(0%,0%,0%);stroke-opacity:1;stroke-miterlimit:10;" d="M 253.179727 37.691493 L 253.179727 1546.050824 " transform="matrix(0.0996038,0,0,-0.0996038,0.005,157.742496)"/>
<path style="fill:none;stroke-width:5;stroke-linecap:round;stroke-linejoin:round;stroke:rgb(0%,0%,0%);stroke-opacity:1;stroke-miterlimit:10;" d="M 468.682042 37.691493 L 468.682042 1546.050824 " transform="matrix(0.0996038,0,0,-0.0996038,0.005,157.742496)"/>
<path style="fill:none;stroke-width:5;stroke-linecap:round;stroke-linejoin:round;stroke:rgb(0%,0%,0%);stroke-opacity:1;stroke-miterlimit:10;" d="M 684.145139 37.691493 L 684.145139 1546.050824 " transform="matrix(0.0996038,0,0,-0.0996038,0.005,157.742496)"/>
<path style="fill:none;stroke-width:5;stroke-linecap:round;stroke-linejoin:round;stroke:rgb(0%,0%,0%);stroke-opacity:1;stroke-miterlimit:10;" d="M 899.608235 37.691493 L 899.608235 1546.050824 " transform="matrix(0.0996038,0,0,-0.0996038,0.005,157.742496)"/>
<path style="fill:none;stroke-width:5;stroke-linecap:round;stroke-linejoin:round;stroke:rgb(0%,0%,0%);stroke-opacity:1;stroke-miterlimit:10;" d="M 1115.071332 37.691493 L 1115.071332 1546.050824 " transform="matrix(0.0996038,0,0,-0.0996038,0.005,157.742496)"/>
<path style="fill:none;stroke-width:5;stroke-linecap:round;stroke-linejoin:round;stroke:rgb(0%,0%,0%);stroke-opacity:1;stroke-miterlimit:10;" d="M 1330.573647 37.691493 L 1330.573647 1546.050824 " transform="matrix(0.0996038,0,0,-0.0996038,0.005,157.742496)"/>
<path style="fill:none;stroke-width:5;stroke-linecap:round;stroke-linejoin:round;stroke:rgb(0%,0%,0%);stroke-opacity:1;stroke-miterlimit:10;" d="M 1546.036743 37.691493 L 1546.036743 1546.050824 " transform="matrix(0.0996038,0,0,-0.0996038,0.005,157.742496)"/>
</g>
</svg>
